<svg height="512" viewBox="0 0 60 60" width="512" xmlns="http://www.w3.org/2000/svg"><g id="Page-1" fill="none" fill-rule="evenodd"><g id="023---Megaphone" fill="rgb(0,0,0)" fill-rule="nonzero"><path id="Shape" d="m55 17.3v-14.3c0-1.65685425-1.3431458-3-3-3h-2c-1.6568542 0-3 1.34314575-3 3v1.566c-5.512 5.3-12.806 6.434-18 6.434h-5v-2c0-1.1045695-.8954305-2-2-2h-6c-2.209139 0-4 1.790861-4 4h-2c-2.51596182.0081043-4.63252702 1.8876382-4.938 4.385-.48311928-.2494529-1.01829257-.3813618-1.562-.385-1.93299662 0-3.5 1.5670034-3.5 3.5v11c.00511497 1.3470861.7828837 2.5716829 2 3.149v6.351c.00716485 6.624447 5.37555305 11.9928352 12 12h.566c.7326675 2.8461528 2.015833 5.5211978 3.777 7.874.5709386.7109303 1.4331932 1.1249596 2.345 1.126.2465598.0000964.4921531-.0308127.731-.092l3.68-.931c.9489061-.2423032 1.7204457-.9313911 2.068-1.847.353576-.9313791.2299998-1.9767368-.331-2.8-.7313816-1.0996384-1.3374822-2.277627-1.807-3.512 5.7556381-.9898916 9.9640538-5.9778624 9.971-11.818v-1.461c4.4936337.7391781 8.6685294 2.7900956 12 5.895v1.566c0 1.6568542 1.3431458 3 3 3h2c1.6568542 0 3-1.3431458 3-3v-14.3c2.9599636-.8864421 4.9875016-3.6101515 4.9875016-6.7s-2.027538-5.8135579-4.9875016-6.7zm-41 21.7c-1.2709888-.0015506-2.4036464-.8022983-2.829-2h14.829v2zm9.037 2h2.963v2c0 .5522847-.4477153 1-1 1h-1.671c-.171-1.244-.253-2.288-.292-3zm-7.037-32h6v2h-8c0-1.1045695.8954305-2 2-2zm-9 7c0-1.6568542 1.34314575-3 3-3h18v22h-18c-1.65685425 0-3-1.3431458-3-3zm-5 2.5c.00000001-.8284271.67157288-1.5 1.5-1.5s1.49999999.6715729 1.5 1.5v11c-.00000001.8284271-.67157288 1.5-1.5 1.5s-1.49999999-.6715729-1.5-1.5zm12 30.5c-5.52033443-.0060624-9.99393763-4.4796656-10-10v-6.051c.36985829-.0526173.72860474-.1654434 1.062-.334.26502396 2.1559599 1.89507362 3.8923875 4.03 4.293.37148768 2.0081987 1.9269643 3.5886168 3.929 3.992.1083402 2.7253414.4566881 5.4358298 1.041 8.1zm11.3 7.42c-.1129625.3071405-.3705446.5385151-.688.618l-3.68.932c-.3796306.094961-.7797686-.0402419-1.024-.346-4-5-4.738-13.695-4.873-16.624h6c.123 2.564.77 9.485 4.153 14.459.1939718.2820957.2359004.6418578.112.961zm7.7-17.42c-.0025731 4.9899722-3.6833537 9.2143784-8.626 9.9-.295-.99-.529-1.968-.711-2.9h1.337c1.6568542 0 3-1.3431458 3-3v-6h1c1.3367721.000366 2.6723812.078833 4 .235zm-3-3.987v-22.026c5.036-.134 11.593-1.329 17-5.737v33.5c-5.407-4.408-11.964-5.603-17-5.737zm23 9.987c0 .5522847-.4477153 1-1 1h-2c-.5522847 0-1-.4477153-1-1v-42c0-.55228475.4477153-1 1-1h2c.5522847 0 1 .44771525 1 1zm2-16.433v-9.134c1.8213092.787874 3.0003768 2.5825826 3.0003768 4.567s-1.1790676 3.779126-3.0003768 4.567z"/><path id="Shape" d="m19.457 44.844c-.0557334-.3529784-.295545-.6494105-.6291-.7776331-.3335549-.1282226-.7101784-.0687558-.988.156-.2778215.2247558-.4146334.5806547-.3589.9336331.4818507 3.1748869 1.3551682 6.2778512 2.6 9.238.2225705.4993742.8049312.7274312 1.3074258.5119982.5024946-.2154329.7388258-.7944852.5305742-1.2999982-1.179033-2.8079009-2.0059862-5.7509408-2.462-8.762z"/><path id="Shape" d="m42 16h-8c-.5522847 0-1 .4477153-1 1s.4477153 1 1 1h8c.5522847 0 1-.4477153 1-1s-.4477153-1-1-1z"/><path id="Shape" d="m37 20h-3c-.5522847 0-1 .4477153-1 1s.4477153 1 1 1h3c.5522847 0 1-.4477153 1-1s-.4477153-1-1-1z"/><path id="Shape" d="m13 23c2.209139 0 4-1.790861 4-4s-1.790861-4-4-4-4 1.790861-4 4 1.790861 4 4 4zm0-6c1.1045695 0 2 .8954305 2 2s-.8954305 2-2 2-2-.8954305-2-2 .8954305-2 2-2z"/><path id="Shape" d="m10 27h6c.5522847 0 1-.4477153 1-1s-.4477153-1-1-1h-6c-.55228475 0-1 .4477153-1 1s.44771525 1 1 1z"/></g></g></svg>