<svg id="Capa_1" enable-background="new 0 0 512.032 512.032" height="512" viewBox="0 0 512.032 512.032" width="512" xmlns="http://www.w3.org/2000/svg"><g><path d="m40.016 200.032c22.056 0 40-17.944 40-40v-80h80c5.522 0 10-4.477 10-10v-30c0-22.056-17.944-40-40-40h-60c-5.522 0-10 4.477-10 10v115.381c-5.888-3.415-12.717-5.381-20-5.381-22.056 0-40 17.944-40 40s17.944 40 40 40zm40-180h50c11.028 0 20 8.972 20 20v20h-70zm-40 120c11.028 0 20 8.972 20 20s-8.972 20-20 20-20-8.972-20-20 8.972-20 20-20z"/><path d="m472.016 312.032h-60c-5.522 0-10 4.477-10 10v115.381c-5.888-3.415-12.717-5.381-20-5.381-22.056 0-40 17.944-40 40s17.944 40 40 40 40-17.944 40-40v-80h80c5.522 0 10-4.477 10-10v-30c0-22.056-17.944-40-40-40zm-90 180c-11.028 0-20-8.972-20-20s8.972-20 20-20 20 8.972 20 20-8.972 20-20 20zm110-120h-70v-40h50c11.028 0 20 8.972 20 20z"/><path d="m255.807 256.241c-3.906-3.905-10.236-3.905-14.143 0l-21.21 21.21c-3.905 3.905-3.905 10.237 0 14.142 3.906 3.905 10.236 3.905 14.143 0l21.21-21.21c3.905-3.905 3.905-10.237 0-14.142z"/><circle cx="240.016" cy="334.033" r="10"/><path d="m252.12 182.138s-167.835 164.834-167.862 164.862c-7.752 7.792-9.295 19.489-4.635 28.854l-34.878 34.877c-3.905 3.905-3.905 10.237 0 14.142l14.149 14.149-55.948 55.938c-3.905 3.905-3.906 10.237-.001 14.142 3.903 3.905 10.236 3.907 14.142.001l55.949-55.94 14.14 14.14c3.906 3.905 10.236 3.905 14.143 0l36.167-36.168c8.936 2.606 18.16.024 24.518-6.299l53.014-52.066c3.94-3.87 3.997-10.202.128-14.142-3.87-3.94-10.201-3.998-14.142-.128l-53.058 52.11c-1.796 1.784-4.553 1.987-6.564.478-.472-.353 2.418 2.494-42.946-42.869-1.974-1.985-1.984-5.088-.029-7.084l167.791-164.791c26.366-26.359 32.851-58.351 38.57-86.576.023-.116.046-.228.07-.343l97.791 97.79c-.131.027-.257.053-.389.081-28.357 5.865-60.5 12.512-86.47 38.491l-50.585 49.68c-3.94 3.87-3.998 10.202-.128 14.142s10.201 3.998 14.142.128l50.65-49.745c25.272-25.28 58.418-28.932 89.638-35.918l20.369 20.369c3.906 3.905 10.236 3.905 14.143 0 3.905-3.905 3.905-10.237 0-14.143l-12.256-12.256c12.74-4.335 25.684-10.78 36.597-21.692 44.828-44.84 44.828-117.8-.001-162.641-44.916-44.917-117.663-44.98-162.64-.003-11 10.991-17.455 23.881-21.762 36.531l-12.258-12.258c-3.906-3.905-10.236-3.905-14.143 0-3.905 3.905-3.905 10.237 0 14.142l20.403 20.403c-6.883 31.219-10.233 64.033-35.819 89.612zm-157.873 263.952c-9.722-9.722-17.719-17.719-28.288-28.288l26.888-26.887 28.288 28.287zm235.59-398.237c37.112-37.112 97.203-37.157 134.356-.001 37.034 37.043 37.034 97.316.001 134.358-10.834 10.834-24.674 16.115-38.502 19.785l-115.701-115.7c3.613-13.71 8.876-27.48 19.846-38.442z"/></g></svg>